<svg width="178" height="232" viewBox="0 0 178 232" fill="none" xmlns="http://www.w3.org/2000/svg">
<path d="M89 183.479C126.003 183.479 156 153.268 156 116C156 78.7323 126.003 48.5209 89 48.5209C51.997 48.5209 22.0001 78.7323 22.0001 116C22.0001 153.268 51.997 183.479 89 183.479Z" fill="#FFCB00"/>
<path d="M88.6204 137.888C82.3095 137.888 75.9512 137.983 69.6403 137.84C66.9356 137.792 65.7968 138.7 65.9391 141.52C66.0815 144.339 65.9391 147.159 65.9391 150.026C65.9391 152.129 65.7019 153.897 62.8548 153.85C60.3874 153.802 59.4384 152.703 59.4384 150.265C59.4859 140.516 59.4859 130.815 59.4384 121.066C59.4384 118.82 60.1976 117.864 62.4752 117.912C64.5631 117.959 65.8917 118.485 65.8917 120.827C65.8917 122.404 66.0815 124.029 65.8917 125.606C65.2274 130.289 66.7932 132.249 71.823 131.866C77.7068 131.388 78.5135 130.672 75.9986 124.937C73.8633 120.158 71.2061 115.618 68.9285 110.839C68.2167 109.31 67.1254 109.357 65.9391 109.453C60.2451 110.026 56.5439 106.299 52.4632 103.192C49.3315 100.851 51.6091 98.2223 52.8428 96.7886C56.7337 92.2486 61.1466 88.1387 65.5121 84.1244C67.2677 82.4995 69.5928 82.404 71.9653 83.3597C74.1006 84.22 74.2429 85.797 73.9108 87.6608C73.5312 89.7158 72.3449 90.0503 70.3994 89.429C65.6544 87.8998 64.3733 91.7707 62.7599 94.7815C62.0007 96.2152 62.5701 97.1232 64.4682 97.6966C69.9724 99.3693 75.619 96.932 81.3605 99.1781C84.0652 100.229 84.8244 96.1196 83.6856 93.3478C82.5942 90.6238 81.0283 88.3777 82.3095 84.9368C84.4448 79.0109 86.4377 77.1949 91.4674 78.6286C94.5992 79.5366 97.0191 86.0838 95.5956 89.9547C95.1211 91.2928 94.4094 92.4876 93.7925 93.7779C92.9384 95.5461 93.0807 97.171 94.5517 98.6046C95.9278 100.038 97.3513 99.8472 98.8222 98.9392C102.381 96.7886 106.319 99.1303 110.021 97.7922C112.108 97.0276 115.098 97.84 114.149 94.2558C113.484 91.6751 112.725 88.5688 108.834 88.9989C107.126 89.1901 105.038 91.1494 103.947 88.1865C103.472 86.8484 103.567 85.3669 104.659 84.22C106.319 82.3562 108.739 82.165 110.448 83.2164C116.901 87.2785 122.31 92.4876 126.343 99.0348C126.96 100.038 126.676 101.042 125.916 101.95C123.022 105.343 119.7 109.023 115.193 108.927C110.448 108.784 108.502 110.791 106.841 114.71C104.943 119.202 101.812 123.121 101.337 128.186C101.195 129.811 100.436 132.296 103.377 131.58C105.987 130.958 110.163 134.208 111.064 128.951C111.491 126.562 111.207 124.029 111.159 121.544C111.112 118.82 112.488 117.864 115.098 117.816C117.755 117.768 118.324 119.059 118.324 121.4C118.277 130.958 118.277 140.516 118.324 150.074C118.324 152.416 117.518 153.706 115.003 153.754C112.346 153.802 111.064 152.655 111.207 149.979C111.207 149.787 111.207 149.644 111.207 149.453C110.875 145.821 112.82 141.09 110.305 138.748C107.648 136.263 102.903 138.079 99.1069 137.888C95.6431 137.744 92.1317 137.888 88.6204 137.888Z" fill="black"/>
<path d="M125.774 135.45C125.774 139.513 125.679 143.575 125.822 147.637C125.916 150.265 124.635 150.982 122.358 151.078C119.606 151.221 119.7 149.357 119.7 147.541C119.653 139.752 119.7 131.962 119.7 124.172C119.7 121.83 120.08 119.871 123.069 120.014C125.869 120.158 125.774 122.261 125.774 124.22C125.774 127.995 125.774 131.723 125.774 135.45Z" fill="black"/>
<path d="M57.4455 135.737C57.4455 139.799 57.4455 143.861 57.4455 147.876C57.4455 149.74 56.7812 150.887 54.7408 150.934C52.6055 150.982 52.0836 149.74 52.0836 147.876C52.0836 139.608 52.0836 131.293 52.0836 123.025C52.0836 121.161 52.6055 120.014 54.7408 120.014C56.8286 120.014 57.4455 121.209 57.4455 123.025C57.4455 127.278 57.4455 131.532 57.4455 135.737Z" fill="black"/>
<path d="M50.7075 136.167C50.7075 138.987 50.6601 141.806 50.7075 144.626C50.755 146.585 50.0432 147.541 47.9554 147.493C46.0099 147.446 45.6778 146.299 45.6778 144.722C45.6778 138.748 45.6778 132.726 45.6778 126.753C45.6778 125.08 46.2946 124.076 48.0978 124.076C49.806 124.076 50.6601 124.937 50.6601 126.657C50.7075 129.811 50.7075 132.965 50.7075 136.167Z" fill="#020202"/>
<path d="M132.038 135.594C132.038 138.748 131.99 141.95 132.038 145.104C132.038 146.968 131.041 147.493 129.38 147.446C127.909 147.398 127.055 146.824 127.055 145.247C127.055 138.891 127.055 132.583 127.055 126.227C127.055 124.698 128.099 124.124 129.475 124.029C131.231 123.933 132.038 124.841 132.038 126.562C132.038 129.62 132.038 132.583 132.038 135.594Z" fill="black"/>
<path d="M133.129 135.498C133.746 133.778 132.085 130.815 135.074 130.815C138.87 130.815 137.115 134.208 137.21 136.072C137.305 137.84 138.491 141.09 135.169 140.898C131.61 140.659 134.03 137.219 133.129 135.498Z" fill="black"/>
<path d="M44.7763 135.976C43.8747 137.84 45.7727 140.946 42.7833 140.755C39.4618 140.564 40.743 137.314 40.743 135.307C40.6955 133.682 39.5567 130.719 42.5935 130.863C46.3896 131.054 43.2578 134.638 44.7763 135.976Z" fill="black"/>
</svg>
